<svg width="875" height="872" viewBox="0 0 875 872" fill="none" xmlns="http://www.w3.org/2000/svg">
<path d="M817.579 149.173C813.363 154.406 811.502 157.82 811.995 159.414C812.156 160.011 812.718 160.435 813.682 160.687C814.633 161.133 816.279 161.425 818.618 161.561C820.75 161.881 823.089 162.017 825.635 161.97C827.974 162.106 831.39 162.207 835.885 162.273C840.368 162.534 844.753 162.79 849.041 163.039C858.397 163.584 863.722 162.818 865.017 160.741C866.311 158.664 864.738 153.779 860.296 146.084C857.267 141.016 855.459 136.802 854.872 133.441C854.274 130.276 854.214 124.598 854.691 116.407C855.054 110.167 855.751 104.924 856.78 100.68C857.615 96.4234 858.57 93.4462 859.647 91.7478C860.518 90.2332 861.383 88.816 862.242 87.4963C863.09 86.3717 863.553 85.1268 863.633 83.7618C863.506 82.5803 862.932 80.688 861.91 78.0848C860.532 74.8738 858.978 73.0222 857.246 72.53C855.503 72.2329 853.543 72.3143 851.365 72.7745C848.98 73.4183 845.62 72.3421 841.285 69.5459C834.874 65.4547 829.909 65.0678 826.391 68.385C822.873 71.7022 823.397 76.1353 827.964 81.6844C830.533 84.5734 832.031 87.4001 832.457 90.1643C832.676 93.1121 832.508 99.3638 831.951 108.919C831.132 119.633 829.898 127.388 828.249 132.184C826.406 136.969 822.849 142.632 817.579 149.173ZM693.128 39.4911C693.06 40.6611 691.359 43.0079 688.024 46.5315C684.495 50.0437 682.634 53.4574 682.441 56.7726C682.123 62.2328 683.661 66.0402 687.056 68.1946C690.256 70.3377 693.971 70.3584 698.2 68.2567C702.43 66.1549 705.586 62.3275 707.67 56.7744C709.295 52.3686 715.915 49.5256 727.528 48.2452C738.935 47.1485 760.845 47.0549 793.257 47.9643C811.029 48.4122 822.144 48.9618 826.605 49.6129C831.053 50.459 836.116 52.515 841.793 55.7807C848.606 59.6995 854.546 61.8065 859.614 62.1017C864.475 62.5805 867.581 61.2938 868.933 58.2418C870.089 55.1784 869.467 50.7396 867.068 44.9254C865.14 41.0953 864.313 38.5034 864.587 37.1497C864.862 35.796 866.368 33.4378 869.106 30.0752C872.887 25.5993 874.599 21.3942 874.241 17.46C874.194 14.9135 873.603 13.3137 872.467 12.6605C871.332 12.0074 868.718 11.5616 864.625 11.3232C858.571 11.1663 852.868 13.3779 847.517 17.958L839.472 25.1207L782.616 24.1574C744.506 23.6989 724.356 23.7972 722.167 24.4524C720.768 24.9579 718.687 23.7605 715.922 20.8601C713.146 18.1547 710.479 15.26 707.92 12.1759C705.167 9.08045 701.978 6.74236 698.354 5.1616C694.731 3.58084 691.366 4.26541 688.261 7.21529C685.992 9.23553 684.91 12.6946 685.016 17.5926C685.122 22.4905 686.345 26.6709 688.686 30.1336C691.75 34.6168 693.23 37.736 693.128 39.4911Z" fill="white"/>
<path d="M57.1114 723.285C61.3276 718.052 63.1888 714.638 62.695 713.044C62.5341 712.447 61.9721 712.023 61.0089 711.772C60.057 711.325 58.4116 711.033 56.0727 710.897C53.94 710.577 51.601 710.441 49.0558 710.488C46.7169 710.352 43.3002 710.251 38.8059 710.185C34.3229 709.924 29.9373 709.668 25.6493 709.419C16.2934 708.874 10.9683 709.64 9.67392 711.717C8.37951 713.794 9.95292 718.679 14.3942 726.374C17.4237 731.442 19.2318 735.656 19.8184 739.017C20.4163 742.182 20.4768 747.86 19.9997 756.051C19.6363 762.291 18.9398 767.534 17.9103 771.778C17.0757 776.035 16.12 779.012 15.0432 780.71C14.1727 782.225 13.3079 783.642 12.4487 784.962C11.6009 786.086 11.1373 787.331 11.0578 788.696C11.1845 789.878 11.7588 791.77 12.7807 794.373C14.1582 797.584 15.7128 799.436 17.4443 799.928C19.1871 800.225 21.1476 800.144 23.3257 799.684C25.7101 799.04 29.07 800.116 33.4053 802.912C39.8166 807.003 44.7812 807.39 48.2991 804.073C51.8171 800.756 51.293 796.323 46.7268 790.774C44.157 787.885 42.6593 785.058 42.2335 782.294C42.0141 779.346 42.1826 773.094 42.7391 763.539C43.5587 752.825 44.7927 745.07 46.441 740.274C48.2842 735.489 51.841 729.826 57.1114 723.285ZM181.562 832.967C181.63 831.797 183.332 829.45 186.666 825.927C190.195 822.414 192.057 819.001 192.25 815.686C192.568 810.225 191.029 806.418 187.634 804.263C184.435 802.12 180.72 802.1 176.49 804.201C172.261 806.303 169.104 810.131 167.021 815.684C165.395 820.089 158.776 822.933 147.162 824.213C135.755 825.31 113.845 825.403 81.433 824.494C63.6619 824.046 52.5462 823.496 48.0859 822.845C43.637 821.999 38.574 819.943 32.897 816.677C26.0846 812.759 20.1445 810.652 15.0768 810.356C10.2153 809.878 7.10897 811.164 5.75777 814.216C4.60149 817.28 5.22305 821.718 7.62246 827.533C9.55071 831.363 10.3776 833.955 10.1032 835.308C9.82879 836.662 8.32243 839.02 5.58413 842.383C1.80312 846.859 0.0914059 851.064 0.448992 854.998C0.496257 857.545 1.08759 859.144 2.22299 859.798C3.3584 860.451 5.97268 860.896 10.0659 861.135C16.1195 861.292 21.8222 859.08 27.1738 854.5L35.2184 847.337L92.0743 848.301C130.184 848.759 150.334 848.661 152.524 848.006C153.922 847.5 156.004 848.698 158.769 851.598C161.545 854.303 164.212 857.198 166.77 860.282C169.524 863.378 172.712 865.716 176.336 867.296C179.96 868.877 183.324 868.193 186.43 865.243C188.699 863.223 189.78 859.763 189.674 854.866C189.569 849.968 188.345 845.787 186.004 842.324C182.941 837.841 181.46 834.722 181.562 832.967Z" fill="white"/>
<path d="M403.987 320.518C408.908 324.251 412.111 325.896 413.597 325.453C414.153 325.309 414.545 324.808 414.772 323.952C415.183 323.104 415.442 321.641 415.552 319.562C415.834 317.666 415.943 315.587 415.88 313.325C415.989 311.246 416.057 308.21 416.085 304.215C416.294 300.231 416.499 296.333 416.7 292.521C417.137 284.205 416.381 279.475 414.431 278.33C412.48 277.185 407.929 278.596 400.775 282.563C396.064 285.268 392.14 286.886 389.006 287.416C386.053 287.956 380.749 288.024 373.094 287.622C367.262 287.315 362.359 286.709 358.386 285.806C354.404 285.075 351.615 284.233 350.02 283.281C348.599 282.511 347.268 281.746 346.029 280.986C344.972 280.236 343.805 279.827 342.529 279.76C341.427 279.875 339.663 280.391 337.239 281.306C334.25 282.538 332.533 283.924 332.086 285.465C331.822 287.014 331.913 288.756 332.359 290.691C332.979 292.808 331.999 295.797 329.421 299.657C325.648 305.365 325.324 309.778 328.45 312.896C331.576 316.014 335.713 315.537 340.862 311.464C343.541 309.173 346.17 307.835 348.749 307.449C351.501 307.246 357.343 307.38 366.273 307.85C376.288 308.55 383.542 309.627 388.035 311.079C392.519 312.705 397.836 315.851 403.987 320.518ZM302.478 431.403C303.572 431.461 305.777 432.967 309.094 435.921C312.402 439.048 315.605 440.693 318.704 440.856C323.807 441.125 327.352 439.748 329.339 436.725C331.316 433.876 331.307 430.574 329.311 426.821C327.316 423.068 323.716 420.273 318.512 418.435C314.384 417.002 311.678 411.127 310.393 400.809C309.281 390.674 309.026 371.203 309.627 342.396C309.91 326.601 310.338 316.721 310.912 312.756C311.668 308.8 313.55 304.295 316.558 299.241C320.166 293.177 322.089 287.892 322.326 283.388C322.736 279.066 321.51 276.309 318.649 275.116C315.778 274.096 311.637 274.66 306.223 276.808C302.66 278.531 300.245 279.273 298.979 279.032C297.712 278.792 295.498 277.46 292.335 275.035C288.125 271.686 284.184 270.176 280.511 270.504C278.133 270.552 276.643 271.082 276.041 272.093C275.44 273.104 275.044 275.428 274.852 279.066C274.752 284.447 276.862 289.509 281.181 294.253L287.934 301.384L287.469 351.915C287.332 385.785 287.579 403.692 288.207 405.636C288.69 406.877 287.588 408.73 284.899 411.195C282.393 413.669 279.71 416.047 276.848 418.329C273.977 420.783 271.818 423.623 270.369 426.848C268.92 430.073 269.585 433.061 272.364 435.813C274.269 437.824 277.509 438.776 282.083 438.67C286.658 438.563 290.554 437.465 293.771 435.375C297.935 432.641 300.838 431.317 302.478 431.403Z" fill="white"/>
<path d="M470.27 548.919C465.242 545.222 461.976 543.601 460.473 544.055C459.91 544.204 459.517 544.708 459.293 545.566C458.884 546.416 458.634 547.881 458.542 549.961C458.272 551.859 458.179 553.939 458.264 556.2C458.172 558.28 458.13 561.317 458.138 565.312C457.961 569.298 457.787 573.198 457.618 577.011C457.248 585.33 458.058 590.055 460.048 591.185C462.037 592.316 466.644 590.871 473.869 586.85C478.626 584.109 482.594 582.462 485.77 581.908C488.762 581.347 494.144 581.238 501.917 581.584C507.839 581.847 512.82 582.415 516.86 583.29C520.909 583.99 523.746 584.811 525.373 585.752C526.823 586.511 528.18 587.266 529.445 588.017C530.524 588.759 531.712 589.159 533.007 589.217C534.125 589.093 535.91 588.564 538.362 587.631C541.385 586.376 543.116 584.977 543.555 583.434C543.81 581.882 543.702 580.141 543.231 578.209C542.583 576.097 543.551 573.101 546.134 569.221C549.912 563.485 550.2 559.069 547 555.975C543.8 552.88 539.605 553.389 534.416 557.5C531.718 559.811 529.061 561.169 526.447 561.574C523.656 561.797 517.727 561.707 508.659 561.305C498.488 560.679 491.116 559.657 486.544 558.238C481.979 556.646 476.554 553.54 470.27 548.919ZM572.3 437.273C571.189 437.223 568.938 435.734 565.545 432.805C562.159 429.702 558.894 428.081 555.748 427.941C550.566 427.711 546.981 429.115 544.991 432.152C543.01 435.016 543.049 438.318 545.108 442.056C547.167 445.794 550.845 448.563 556.142 450.361C560.345 451.763 563.144 457.619 564.541 467.927C565.76 478.053 566.193 497.522 565.84 526.334C565.694 542.131 565.348 552.014 564.801 555.984C564.068 559.946 562.199 564.465 559.192 569.541C555.584 575.632 553.679 580.931 553.479 585.437C553.102 589.762 554.37 592.51 557.285 593.682C560.207 594.68 564.406 594.085 569.88 591.897C573.481 590.147 575.926 589.387 577.213 589.618C578.501 589.849 580.76 591.165 583.991 593.566C588.294 596.883 592.308 598.364 596.032 598.008C598.445 597.942 599.953 597.401 600.554 596.386C601.156 595.37 601.537 593.043 601.699 589.403C601.753 584.022 599.566 578.976 595.14 574.264L588.223 567.184L588.243 516.649C588.079 482.778 587.669 464.873 587.013 462.934C586.512 461.696 587.615 459.834 590.321 457.35C592.842 454.857 595.545 452.459 598.428 450.156C601.32 447.679 603.486 444.823 604.928 441.588C606.37 438.352 605.668 435.369 602.822 432.638C600.872 430.641 597.575 429.713 592.933 429.854C588.291 429.995 584.347 431.122 581.101 433.235C576.899 436.001 573.965 437.347 572.3 437.273Z" fill="white"/>
<path d="M468.352 284.726C463.198 281.24 459.884 279.759 458.412 280.282C457.859 280.456 457.491 280.979 457.307 281.85C456.939 282.722 456.755 284.203 456.755 286.295C456.571 288.212 456.571 290.303 456.755 292.569C456.755 294.661 456.847 297.711 457.031 301.719C457.031 305.728 457.031 309.65 457.031 313.484C457.031 321.85 458.043 326.556 460.068 327.602C462.093 328.647 466.603 326.992 473.598 322.634C478.201 319.671 482.066 317.841 485.196 317.144C488.141 316.447 493.48 316.098 501.211 316.098C507.102 316.098 512.072 316.447 516.122 317.144C520.172 317.667 523.025 318.364 524.682 319.236C526.155 319.933 527.535 320.63 528.824 321.327C529.928 322.024 531.125 322.373 532.413 322.373C533.518 322.199 535.267 321.589 537.66 320.543C540.605 319.148 542.262 317.667 542.63 316.098C542.814 314.53 542.63 312.787 542.078 310.87C541.342 308.778 542.17 305.728 544.563 301.719C548.061 295.793 548.153 291.349 544.839 288.386C541.526 285.423 537.384 286.12 532.413 290.478C529.836 292.918 527.259 294.399 524.682 294.922C521.921 295.271 516.03 295.445 507.01 295.445C496.885 295.271 489.522 294.573 484.92 293.353C480.318 291.959 474.795 289.083 468.352 284.726ZM564.72 168.125C563.616 168.125 561.315 166.731 557.817 163.942C554.319 160.979 551.006 159.498 547.877 159.498C542.722 159.498 539.225 161.067 537.384 164.204C535.543 167.167 535.727 170.478 537.936 174.138C540.145 177.798 543.919 180.413 549.257 181.981C553.491 183.202 556.528 188.953 558.369 199.236C560.026 209.345 561.315 228.866 562.235 257.798C562.787 273.659 562.879 283.593 562.511 287.602C561.959 291.61 560.302 296.229 557.541 301.458C554.227 307.732 552.571 313.135 552.571 317.667C552.387 322.024 553.767 324.726 556.713 325.772C559.658 326.643 563.8 325.859 569.138 323.419C572.636 321.501 575.029 320.63 576.318 320.804C577.606 320.979 579.907 322.199 583.221 324.464C587.639 327.602 591.689 328.909 595.37 328.386C597.763 328.212 599.236 327.602 599.788 326.556C600.341 325.51 600.617 323.157 600.617 319.497C600.433 314.094 598.04 309.127 593.437 304.595L586.258 297.798L584.049 247.079C582.392 213.092 581.196 195.14 580.459 193.223C579.907 192.003 580.92 190.086 583.497 187.472C585.89 184.857 588.467 182.33 591.228 179.89C593.99 177.276 596.015 174.313 597.303 171.001C598.592 167.69 597.763 164.727 594.818 162.112C592.793 160.195 589.48 159.411 584.877 159.759C580.275 160.108 576.41 161.415 573.28 163.681C569.23 166.644 566.377 168.125 564.72 168.125Z" fill="white"/>
<path d="M408.044 584.27C413.127 587.756 416.395 589.237 417.847 588.714C418.391 588.54 418.754 588.017 418.936 587.146C419.299 586.274 419.481 584.793 419.481 582.701C419.662 580.784 419.662 578.692 419.481 576.427C419.481 574.335 419.39 571.285 419.208 567.276C419.208 563.268 419.208 559.346 419.208 555.512C419.208 547.146 418.21 542.44 416.213 541.394C414.216 540.348 409.769 542.004 402.871 546.361C398.333 549.324 394.521 551.154 391.435 551.852C388.53 552.549 383.266 552.897 375.642 552.897C369.833 552.897 364.931 552.549 360.938 551.852C356.944 551.329 354.131 550.632 352.497 549.76C351.045 549.063 349.683 548.366 348.412 547.669C347.323 546.971 346.143 546.623 344.873 546.623C343.784 546.797 342.059 547.407 339.699 548.453C336.795 549.847 335.161 551.329 334.798 552.897C334.616 554.466 334.798 556.209 335.342 558.126C336.069 560.218 335.252 563.268 332.892 567.276C329.443 573.202 329.352 577.647 332.62 580.61C335.887 583.573 339.971 582.875 344.873 578.518C347.414 576.078 349.955 574.597 352.497 574.074C355.22 573.725 361.029 573.551 369.924 573.551C379.908 573.725 387.169 574.422 391.707 575.642C396.245 577.037 401.691 579.912 408.044 584.27ZM313.015 700.87C314.104 700.87 316.373 702.265 319.822 705.053C323.271 708.016 326.538 709.498 329.624 709.498C334.707 709.498 338.156 707.929 339.971 704.792C341.787 701.829 341.605 698.517 339.427 694.857C337.249 691.197 333.527 688.583 328.263 687.014C324.088 685.794 321.093 680.043 319.277 669.759C317.644 659.651 316.373 640.13 315.465 611.198C314.921 595.337 314.83 585.403 315.193 581.394C315.738 577.385 317.371 572.767 320.094 567.538C323.362 561.263 324.995 555.86 324.995 551.329C325.177 546.971 323.815 544.27 320.911 543.224C318.007 542.353 313.922 543.137 308.658 545.577C305.209 547.494 302.849 548.366 301.578 548.192C300.308 548.017 298.039 546.797 294.771 544.531C290.414 541.394 286.421 540.087 282.79 540.61C280.43 540.784 278.978 541.394 278.434 542.44C277.889 543.486 277.617 545.839 277.617 549.499C277.798 554.902 280.158 559.869 284.696 564.401L291.776 571.198L293.954 621.917C295.588 655.903 296.768 673.855 297.494 675.772C298.039 676.993 297.04 678.91 294.499 681.524C292.139 684.138 289.598 686.666 286.875 689.106C284.152 691.72 282.155 694.683 280.884 697.995C279.614 701.306 280.43 704.269 283.335 706.883C285.332 708.801 288.599 709.585 293.137 709.236C297.676 708.888 301.488 707.581 304.574 705.315C308.567 702.352 311.381 700.87 313.015 700.87Z" fill="white"/>
<path d="M817.579 723.285C813.363 718.051 811.502 714.638 811.995 713.044C812.156 712.447 812.718 712.023 813.682 711.771C814.633 711.325 816.279 711.033 818.618 710.897C820.75 710.577 823.089 710.441 825.635 710.488C827.974 710.352 831.39 710.251 835.885 710.185C840.368 709.924 844.753 709.668 849.041 709.418C858.397 708.874 863.722 709.64 865.017 711.717C866.311 713.794 864.738 718.679 860.296 726.373C857.267 731.442 855.459 735.656 854.872 739.017C854.274 742.182 854.214 747.86 854.691 756.051C855.054 762.291 855.751 767.533 856.78 771.778C857.615 776.034 858.57 779.012 859.647 780.71C860.518 782.225 861.383 783.642 862.242 784.961C863.09 786.086 863.553 787.331 863.633 788.696C863.506 789.877 862.932 791.77 861.91 794.373C860.532 797.584 858.978 799.436 857.246 799.928C855.503 800.225 853.543 800.143 851.365 799.683C848.98 799.04 845.62 800.116 841.285 802.912C834.874 807.003 829.909 807.39 826.391 804.073C822.873 800.756 823.397 796.323 827.964 790.773C830.533 787.884 832.031 785.058 832.457 782.294C832.676 779.346 832.508 773.094 831.951 763.539C831.132 752.824 829.898 745.069 828.249 740.274C826.406 735.489 822.849 729.826 817.579 723.285ZM693.128 832.967C693.06 831.797 691.359 829.45 688.024 825.926C684.495 822.414 682.634 819 682.441 815.685C682.123 810.225 683.661 806.418 687.056 804.263C690.256 802.12 693.971 802.099 698.2 804.201C702.43 806.303 705.586 810.13 707.67 815.683C709.295 820.089 715.915 822.932 727.528 824.213C738.935 825.309 760.845 825.403 793.257 824.494C811.029 824.046 822.144 823.496 826.605 822.845C831.053 821.999 836.116 819.943 841.793 816.677C848.606 812.758 854.546 810.651 859.614 810.356C864.475 809.877 867.581 811.164 868.933 814.216C870.089 817.279 869.467 821.718 867.068 827.532C865.14 831.363 864.313 833.954 864.587 835.308C864.862 836.662 866.368 839.02 869.106 842.383C872.887 846.859 874.599 851.064 874.241 854.998C874.194 857.544 873.603 859.144 872.467 859.797C871.332 860.45 868.718 860.896 864.625 861.135C858.571 861.291 852.868 859.08 847.517 854.5L839.472 847.337L782.616 848.3C744.506 848.759 724.356 848.661 722.167 848.005C720.768 847.5 718.687 848.697 715.922 851.598C713.146 854.303 710.479 857.198 707.92 860.282C705.167 863.377 701.978 865.715 698.354 867.296C694.731 868.877 691.366 868.192 688.261 865.243C685.992 863.222 684.91 859.763 685.016 854.865C685.122 849.967 686.345 845.787 688.686 842.324C691.75 837.841 693.23 834.722 693.128 832.967Z" fill="white"/>
<path d="M57.1113 149.173C61.3276 154.407 63.1888 157.82 62.6949 159.415C62.5341 160.011 61.9721 160.435 61.0089 160.687C60.057 161.134 58.4116 161.425 56.0727 161.561C53.94 161.881 51.601 162.017 49.0558 161.97C46.7168 162.106 43.3002 162.207 38.8058 162.273C34.3228 162.534 29.9373 162.79 25.6492 163.04C16.2934 163.585 10.9683 162.818 9.6739 160.741C8.37949 158.664 9.9529 153.779 14.3941 146.085C17.4237 141.016 19.2318 136.802 19.8184 133.442C20.4163 130.276 20.4767 124.598 19.9997 116.408C19.6363 110.167 18.9398 104.925 17.9103 100.68C17.0757 96.4237 16.12 93.4464 15.0432 91.7481C14.1727 90.2334 13.3079 88.8162 12.4487 87.4966C11.6009 86.3719 11.1373 85.1271 11.0578 83.762C11.1845 82.5806 11.7588 80.6883 12.7807 78.085C14.1582 74.874 15.7128 73.0225 17.4443 72.5303C19.1871 72.2331 21.1476 72.3146 23.3257 72.7748C25.7101 73.4186 29.07 72.3424 33.4053 69.5461C39.8166 65.455 44.7812 65.068 48.2991 68.3852C51.8171 71.7024 51.293 76.1355 46.7268 81.6846C44.157 84.5737 42.6593 87.4003 42.2335 90.1645C42.0141 93.1124 42.1826 99.364 42.7391 108.92C43.5587 119.634 44.7927 127.389 46.441 132.184C48.2842 136.969 51.841 142.632 57.1113 149.173ZM181.562 39.4913C181.63 40.6614 183.332 43.0082 186.666 46.5318C190.195 50.044 192.057 53.4577 192.25 56.7728C192.568 62.2331 191.029 66.0405 187.634 68.1949C184.434 70.338 180.72 70.3587 176.49 68.2569C172.261 66.1552 169.104 62.3278 167.021 56.7746C165.395 52.3689 158.776 49.5258 147.162 48.2455C135.755 47.1488 113.845 47.0551 81.433 47.9645C63.6619 48.4125 52.5462 48.962 48.0859 49.6132C43.637 50.4593 38.574 52.5152 32.897 55.7809C26.0846 59.6998 20.1445 61.8068 15.0768 62.1019C10.2153 62.5807 7.10897 61.2941 5.75777 58.242C4.60148 55.1786 5.22305 50.7398 7.62246 44.9256C9.5507 41.0956 10.3776 38.5037 10.1032 37.1499C9.82879 35.7962 8.32243 33.4381 5.58413 30.0755C1.80312 25.5996 0.0914043 21.3945 0.448991 17.4602C0.496256 14.9137 1.08759 13.3139 2.22299 12.6608C3.3584 12.0076 5.97268 11.5619 10.0659 11.3235C16.1195 11.1666 21.8222 13.3782 27.1738 17.9583L35.2184 25.121L92.0743 24.1577C130.184 23.6991 150.334 23.7975 152.524 24.4526C153.922 24.9582 156.004 23.7608 158.769 20.8604C161.545 18.155 164.212 15.2602 166.77 12.1761C169.524 9.08071 172.712 6.74262 176.336 5.16186C179.96 3.5811 183.324 4.26567 186.43 7.21555C188.699 9.23579 189.78 12.6949 189.674 17.5928C189.569 22.4908 188.345 26.6711 186.004 30.1339C182.941 34.6171 181.46 37.7362 181.562 39.4913Z" fill="white"/>
<path d="M863.495 333.502C861.708 335.326 858.828 335.833 854.856 335.022C850.685 334.211 847.11 332.489 844.131 329.854C841.748 327.624 839.861 326.611 838.471 326.813C836.882 327.016 834.101 328.638 830.129 331.678C825.561 335.123 822.383 336.238 820.596 335.022C818.61 333.806 817.617 330.158 817.617 324.077C817.617 320.632 818.014 317.997 818.808 316.173C819.404 314.349 820.199 313.031 821.192 312.22C822.185 311.612 823.277 310.903 824.469 310.092C825.462 309.281 826.554 307.457 827.746 304.62C828.739 301.782 829.633 297.83 830.427 292.763C833.605 268.238 835.392 249.389 835.789 236.215C836.187 223.04 835.789 214.832 834.598 211.589C833.406 208.548 831.42 205.306 828.639 201.86C825.859 198.414 823.774 194.462 822.383 190.003C821.192 186.557 820.695 184.024 820.894 182.403C821.092 180.781 821.986 179.16 823.575 177.538C825.362 175.511 826.951 174.498 828.342 174.498C829.533 174.701 832.115 175.917 836.087 178.146C841.847 181.186 845.72 181.693 847.706 179.666C849.493 177.842 852.572 176.93 856.941 176.93C861.112 177.133 864.091 178.146 865.879 179.97C870.844 184.835 869.056 191.523 860.516 200.036C856.544 204.292 854.161 208.042 853.366 211.285C852.373 214.528 851.479 223.648 850.685 238.647C849.295 260.131 849.295 276.447 850.685 287.594C852.075 298.742 854.955 307.153 859.324 312.828C866.474 322.152 867.865 329.043 863.495 333.502Z" fill="white"/>
<path d="M55.4952 333.502C53.7078 335.326 50.8279 335.833 46.8558 335.022C42.685 334.211 39.1101 332.489 36.1309 329.854C33.7476 327.624 31.8608 326.611 30.4706 326.813C28.8817 327.016 26.1012 328.638 22.129 331.678C17.5611 335.123 14.3833 336.238 12.5958 335.022C10.6098 333.806 9.61672 330.158 9.61672 324.077C9.61672 320.632 10.0139 317.997 10.8084 316.173C11.4042 314.349 12.1986 313.031 13.1917 312.22C14.1847 311.612 15.2771 310.903 16.4687 310.092C17.4617 309.281 18.5541 307.457 19.7457 304.62C20.7388 301.782 21.6325 297.83 22.4269 292.763C25.6047 268.238 27.3922 249.389 27.7894 236.215C28.1866 223.04 27.7894 214.832 26.5977 211.589C25.4061 208.548 23.42 205.306 20.6395 201.86C17.859 198.414 15.7736 194.462 14.3833 190.003C13.1917 186.557 12.6951 184.024 12.8937 182.403C13.0924 180.781 13.9861 179.16 15.575 177.538C17.3624 175.511 18.9513 174.498 20.3416 174.498C21.5332 174.701 24.1151 175.917 28.0873 178.146C33.8469 181.186 37.7198 181.693 39.7059 179.666C41.4933 177.842 44.5718 176.93 48.9411 176.93C53.1119 177.133 56.091 178.146 57.8785 179.97C62.8437 184.835 61.0563 191.523 52.5161 200.036C48.5439 204.292 46.1606 208.042 45.3662 211.285C44.3732 214.528 43.4794 223.648 42.685 238.647C41.2947 260.131 41.2947 276.447 42.685 287.594C44.0753 298.742 46.9551 307.153 51.3245 312.828C58.4744 322.152 59.8646 329.043 55.4952 333.502Z" fill="white"/>
<path d="M320.692 262.155C318.624 264.296 315.292 264.891 310.697 263.939C305.872 262.988 301.736 260.965 298.29 257.872C295.533 255.255 293.35 254.065 291.742 254.303C289.904 254.541 286.687 256.444 282.092 260.013C276.807 264.058 273.131 265.367 271.063 263.939C268.766 262.512 267.617 258.229 267.617 251.091C267.617 247.046 268.076 243.953 268.995 241.812C269.685 239.67 270.604 238.124 271.752 237.172C272.901 236.458 274.165 235.626 275.544 234.674C276.692 233.722 277.956 231.581 279.335 228.25C280.483 224.919 281.517 220.279 282.436 214.331C286.113 185.541 288.18 163.413 288.64 147.948C289.1 132.482 288.64 122.846 287.261 119.039C285.883 115.47 283.585 111.663 280.369 107.619C277.152 103.574 274.739 98.9341 273.131 93.6996C271.752 89.6548 271.178 86.6807 271.408 84.7772C271.638 82.8738 272.671 80.9703 274.51 79.0669C276.577 76.6876 278.416 75.4979 280.024 75.4979C281.402 75.7359 284.389 77.1634 288.985 79.7807C295.648 83.3496 300.128 83.9445 302.426 81.5652C304.494 79.4238 308.055 78.3531 313.11 78.3531C317.935 78.591 321.381 79.7807 323.449 81.9221C329.193 87.6324 327.125 95.4841 317.245 105.477C312.65 110.474 309.893 114.876 308.974 118.682C307.825 122.489 306.791 133.196 305.872 150.803C304.264 176.024 304.264 195.177 305.872 208.263C307.481 221.35 310.812 231.224 315.867 237.886C324.138 248.831 325.747 256.92 320.692 262.155Z" fill="white"/>
<path d="M551.542 608.841C553.609 606.7 556.941 606.105 561.536 607.056C566.361 608.008 570.497 610.031 573.943 613.124C576.701 615.741 578.883 616.931 580.492 616.693C582.33 616.455 585.546 614.551 590.142 610.982C595.426 606.937 599.102 605.629 601.17 607.056C603.468 608.484 604.617 612.767 604.617 619.905C604.617 623.95 604.157 627.043 603.238 629.184C602.549 631.325 601.63 632.872 600.481 633.824C599.332 634.537 598.068 635.37 596.69 636.322C595.541 637.274 594.277 639.415 592.899 642.746C591.75 646.077 590.716 650.717 589.797 656.665C586.121 685.455 584.053 707.582 583.593 723.048C583.134 738.513 583.593 748.15 584.972 751.956C586.351 755.525 588.648 759.332 591.865 763.377C595.082 767.422 597.494 772.062 599.102 777.296C600.481 781.341 601.055 784.315 600.826 786.219C600.596 788.122 599.562 790.025 597.724 791.929C595.656 794.308 593.818 795.498 592.21 795.498C590.831 795.26 587.844 793.832 583.249 791.215C576.586 787.646 572.105 787.051 569.808 789.431C567.74 791.572 564.178 792.643 559.124 792.643C554.299 792.405 550.852 791.215 548.784 789.074C543.04 783.363 545.108 775.512 554.988 765.518C559.583 760.522 562.34 756.12 563.259 752.313C564.408 748.506 565.442 737.8 566.361 720.193C567.97 694.972 567.97 675.818 566.361 662.732C564.753 649.646 561.421 639.772 556.367 633.11C548.095 622.165 546.487 614.075 551.542 608.841Z" fill="white"/>
<path d="M331.956 71.759C329.324 69.3769 328.47 65.4137 329.395 59.8693C330.311 54.0498 332.527 49.0086 336.043 44.7458C339.026 41.3292 340.341 38.6632 339.987 36.7477C339.623 34.5572 337.222 30.7891 332.784 25.4434C327.751 19.2932 326.035 14.9487 327.637 12.4098C329.229 9.59578 334.259 8.03189 342.728 7.71814C347.527 7.54035 351.217 7.95465 353.798 8.96104C356.369 9.6923 358.245 10.7248 359.425 12.0586C360.323 13.4029 361.367 14.8795 362.557 16.4884C363.737 17.8222 366.334 19.2413 370.347 20.7457C374.35 21.9749 379.901 23.009 386.999 23.8481C421.318 26.9847 447.663 28.4882 466.032 28.3587C484.401 28.2292 495.813 27.2554 500.269 25.4373C504.442 23.6296 508.857 20.711 513.513 16.6814C518.169 12.6519 523.567 9.55907 529.705 7.4031C534.443 5.57454 537.946 4.756 540.215 4.94746C542.483 5.13892 544.787 6.29333 547.127 8.41069C550.042 10.7823 551.535 12.931 551.606 14.8569C551.385 16.5181 549.824 20.1575 546.923 25.7751C542.984 33.9107 542.477 39.3018 545.402 41.9485C548.034 44.3305 549.462 48.548 549.687 54.6008C549.618 60.3889 548.36 64.5681 545.911 67.1384C539.391 74.2676 529.984 72.1366 517.689 60.7453C511.557 55.4624 506.213 52.3543 501.655 51.4211C497.088 50.2128 484.339 49.4454 463.409 49.1188C433.415 48.3015 410.691 49.1433 395.237 51.6444C379.782 54.1455 368.215 58.5689 360.535 64.9145C347.917 75.3002 338.391 77.5817 331.956 71.759Z" fill="white"/>
<path d="M542.038 812.126C544.395 814.439 545.049 818.166 544.002 823.306C542.955 828.704 540.729 833.33 537.325 837.185C534.444 840.27 533.135 842.711 533.397 844.51C533.659 846.567 535.754 850.165 539.681 855.305C544.133 861.217 545.573 865.329 544.002 867.642C542.431 870.213 537.718 871.498 529.862 871.498C525.411 871.498 522.007 870.984 519.65 869.956C517.293 869.185 515.591 868.157 514.544 866.871C513.758 865.586 512.842 864.173 511.794 862.631C510.747 861.345 508.39 859.932 504.724 858.39C501.059 857.105 495.952 855.948 489.406 854.92C457.722 850.807 433.37 848.494 416.35 847.98C399.33 847.466 388.725 847.98 384.535 849.522C380.607 851.065 376.418 853.635 371.966 857.233C367.515 860.831 362.409 863.53 356.648 865.329C352.197 866.871 348.924 867.514 346.829 867.257C344.734 867 342.639 865.843 340.544 863.787C337.926 861.474 336.617 859.418 336.617 857.619C336.879 856.076 338.45 852.735 341.33 847.595C345.258 840.141 345.912 835.129 343.294 832.559C340.937 830.246 339.759 826.262 339.759 820.607C340.021 815.21 341.33 811.355 343.687 809.041C349.971 802.616 358.612 804.929 369.61 815.981C375.109 821.121 379.953 824.206 384.142 825.234C388.332 826.519 400.115 827.675 419.492 828.704C447.248 830.503 468.327 830.503 482.729 828.704C497.131 826.904 507.998 823.178 515.329 817.523C527.374 808.27 536.277 806.471 542.038 812.126Z" fill="white"/>
<path d="M861.495 699.502C859.708 701.326 856.828 701.833 852.856 701.022C848.685 700.211 845.11 698.488 842.131 695.854C839.748 693.624 837.861 692.611 836.471 692.813C834.882 693.016 832.101 694.637 828.129 697.678C823.561 701.123 820.383 702.238 818.596 701.022C816.61 699.806 815.617 696.158 815.617 690.077C815.617 686.632 816.014 683.997 816.808 682.173C817.404 680.348 818.199 679.031 819.192 678.22C820.185 677.612 821.277 676.903 822.469 676.092C823.462 675.281 824.554 673.457 825.746 670.62C826.739 667.782 827.633 663.83 828.427 658.763C831.605 634.238 833.392 615.389 833.789 602.214C834.187 589.04 833.789 580.832 832.598 577.589C831.406 574.548 829.42 571.305 826.639 567.86C823.859 564.414 821.774 560.462 820.383 556.003C819.192 552.557 818.695 550.024 818.894 548.402C819.092 546.781 819.986 545.159 821.575 543.538C823.362 541.511 824.951 540.498 826.342 540.498C827.533 540.7 830.115 541.917 834.087 544.146C839.847 547.186 843.72 547.693 845.706 545.666C847.493 543.842 850.572 542.93 854.941 542.93C859.112 543.133 862.091 544.146 863.879 545.97C868.844 550.835 867.056 557.523 858.516 566.036C854.544 570.292 852.161 574.042 851.366 577.285C850.373 580.527 849.479 589.648 848.685 604.647C847.295 626.131 847.295 642.447 848.685 653.594C850.075 664.742 852.955 673.153 857.324 678.828C864.474 688.152 865.865 695.043 861.495 699.502Z" fill="white"/>
<path d="M53.4952 699.502C51.7078 701.326 48.8279 701.833 44.8558 701.022C40.685 700.211 37.1101 698.488 34.1309 695.854C31.7476 693.624 29.8608 692.611 28.4706 692.813C26.8817 693.016 24.1012 694.637 20.129 697.678C15.5611 701.123 12.3833 702.238 10.5958 701.022C8.60976 699.806 7.61672 696.158 7.61672 690.077C7.61672 686.632 8.01393 683.997 8.80837 682.173C9.40419 680.348 10.1986 679.031 11.1917 678.22C12.1847 677.612 13.2771 676.903 14.4687 676.092C15.4617 675.281 16.5541 673.457 17.7457 670.62C18.7388 667.782 19.6325 663.83 20.4269 658.763C23.6047 634.238 25.3922 615.389 25.7894 602.214C26.1866 589.04 25.7894 580.832 24.5977 577.589C23.4061 574.548 21.42 571.305 18.6395 567.86C15.859 564.414 13.7736 560.462 12.3833 556.003C11.1917 552.557 10.6951 550.024 10.8937 548.402C11.0924 546.781 11.9861 545.159 13.575 543.538C15.3624 541.511 16.9513 540.498 18.3416 540.498C19.5332 540.7 22.1151 541.917 26.0873 544.146C31.8469 547.186 35.7198 547.693 37.7059 545.666C39.4933 543.842 42.5718 542.93 46.9411 542.93C51.1119 543.133 54.091 544.146 55.8785 545.97C60.8437 550.835 59.0563 557.523 50.5161 566.036C46.5439 570.292 44.1606 574.042 43.3662 577.285C42.3732 580.527 41.4794 589.648 40.685 604.647C39.2947 626.131 39.2947 642.447 40.685 653.594C42.0753 664.742 44.9551 673.153 49.3245 678.828C56.4744 688.152 57.8646 695.043 53.4952 699.502Z" fill="white"/>
<path d="M818.827 515.997C820.57 517.868 823.445 518.453 827.452 517.752C831.658 517.057 835.291 515.434 838.351 512.884C840.803 510.723 842.723 509.763 844.112 510.003C845.7 510.249 848.445 511.944 852.347 515.09C856.835 518.656 859.993 519.856 861.819 518.691C863.844 517.53 864.94 513.914 865.106 507.842C865.2 504.401 864.873 501.759 864.126 499.915C863.578 498.077 862.817 496.74 861.843 495.903C860.863 495.268 859.787 494.53 858.614 493.688C857.64 492.851 856.594 490.999 855.476 488.133C854.557 485.272 853.768 481.3 853.11 476.218C850.591 451.639 849.312 432.765 849.273 419.598C849.234 406.43 849.856 398.243 851.14 395.037C852.418 392.033 854.499 388.849 857.382 385.484C860.265 382.119 862.465 378.23 863.981 373.815C865.271 370.406 865.838 367.89 865.683 366.265C865.528 364.64 864.676 362.996 863.126 361.333C861.388 359.26 859.822 358.205 858.427 358.167C857.226 358.336 854.603 359.48 850.558 361.598C844.697 364.476 840.799 364.876 838.862 362.798C837.118 360.927 834.055 359.932 829.672 359.812C825.483 359.9 822.467 360.831 820.624 362.603C815.51 367.325 817.121 374.054 825.456 382.789C829.324 387.149 831.613 390.959 832.321 394.219C833.229 397.485 833.877 406.618 834.264 421.618C835.073 443.112 834.628 459.407 832.929 470.501C831.231 481.596 828.112 489.917 823.574 495.465C816.148 504.58 814.565 511.424 818.827 515.997Z" fill="white"/>
<path d="M10.4141 515.997C12.1574 517.868 15.0324 518.453 19.0391 517.752C23.245 517.057 26.8782 515.434 29.9385 512.884C32.39 510.723 34.3104 509.763 35.6994 510.003C37.2877 510.249 40.0327 511.944 43.9344 515.09C48.4227 518.656 51.5799 519.856 53.4062 518.691C55.4316 517.53 56.5273 513.914 56.6931 507.842C56.7871 504.401 56.4605 501.759 55.7134 499.915C55.1654 498.077 54.4045 496.74 53.4304 495.903C52.4509 495.268 51.3745 494.53 50.2012 493.688C49.2272 492.851 48.1812 490.999 47.0632 488.133C46.1444 485.272 45.3557 481.3 44.697 476.218C42.1783 451.639 40.8994 432.765 40.8603 419.598C40.8212 406.43 41.4435 398.243 42.7273 395.037C44.0057 392.033 46.0864 388.849 48.9696 385.484C51.8528 382.119 54.0525 378.23 55.5687 373.815C56.8581 370.406 57.4253 367.89 57.2703 366.265C57.1153 364.64 56.263 362.996 54.7134 361.333C52.9756 359.26 51.4094 358.205 50.0148 358.167C48.8139 358.336 46.1907 359.48 42.1453 361.598C36.2848 364.476 32.386 364.876 30.449 362.798C28.7056 360.927 25.6425 359.932 21.2594 359.812C17.0701 359.9 14.054 360.831 12.2112 362.603C7.09776 367.325 8.70838 374.054 17.043 382.789C20.9115 387.149 23.2 390.959 23.9085 394.219C24.8162 397.485 25.4639 406.618 25.8517 421.618C26.6603 443.112 26.2153 459.407 24.5166 470.501C22.8179 481.596 19.6997 489.917 15.1618 495.465C7.73525 504.58 6.15267 511.424 10.4141 515.997Z" fill="white"/>
<path d="M225.755 55.2948C222.474 58.845 219.066 60.8737 215.532 61.3808C211.998 61.888 208.843 60.7469 206.066 57.9575C203.795 55.9288 202.659 52.6322 202.659 48.0677C202.406 43.5033 203.29 40.2067 205.309 38.178C207.076 36.1494 208.338 32.0921 209.095 26.0061C209.348 21.9488 210.231 19.2861 211.746 18.0182C213.008 16.7503 215.785 15.9896 220.076 15.736C226.639 14.9752 231.056 16.7503 233.328 21.0612C234.842 23.597 236.862 25.2453 239.386 26.0061C241.91 27.0204 246.832 27.5276 254.152 27.5276C261.977 27.5276 267.53 26.8936 270.812 25.6257C273.841 24.6114 277.627 21.822 282.171 17.2575C286.714 12.9466 289.87 10.4108 291.636 9.65002C293.151 9.14286 294.918 9.9036 296.937 11.9323C299.966 14.9753 301.733 22.7095 302.238 35.1351C302.743 44.5176 302.743 49.9696 302.238 51.4911C301.481 53.0126 299.209 53.5198 295.423 53.0126C274.22 50.9839 258.443 49.9696 248.094 49.9696C237.493 49.9696 231.687 50.2232 230.677 50.7304C229.415 51.4911 227.774 53.0126 225.755 55.2948Z" fill="white"/>
<path d="M310.925 512.5C313.633 515.319 315.114 518.177 315.37 521.073C315.626 523.97 314.575 526.489 312.218 528.63C310.493 530.392 307.8 531.177 304.138 530.985C300.465 530.998 297.858 530.14 296.316 528.411C294.764 526.888 291.563 525.69 286.713 524.817C283.468 524.441 281.37 523.609 280.417 522.324C279.454 521.244 278.962 518.953 278.943 515.451C278.613 510.079 280.226 506.561 283.782 504.894C285.882 503.769 287.29 502.196 288.009 500.174C288.931 498.164 289.548 494.181 289.861 488.225C290.196 481.859 289.925 477.315 289.048 474.591C288.364 472.084 286.288 468.886 282.82 464.997C279.556 461.119 277.657 458.445 277.122 456.975C276.78 455.722 277.466 454.316 279.18 452.759C281.751 450.423 288.032 449.312 298.023 449.426C305.572 449.411 309.946 449.641 311.146 450.116C312.334 450.796 312.644 452.666 312.075 455.725C309.54 472.889 308.051 485.681 307.608 494.101C307.154 502.726 307.109 507.46 307.473 508.303C308.029 509.361 309.18 510.76 310.925 512.5Z" fill="white"/>
<path d="M570.773 355.27C568.042 352.473 566.537 349.627 566.258 346.733C565.979 343.839 567.009 341.312 569.348 339.151C571.058 337.375 573.745 336.568 577.409 336.731C581.082 336.688 583.696 337.525 585.251 339.24C586.815 340.751 590.026 341.923 594.884 342.756C598.131 343.106 600.236 343.92 601.199 345.198C602.171 346.27 602.681 348.557 602.73 352.059C603.103 357.427 601.519 360.959 597.976 362.654C595.886 363.797 594.49 365.381 593.789 367.409C592.883 369.427 592.298 373.415 592.033 379.372C591.75 385.741 592.058 390.283 592.958 392.999C593.662 395.5 595.764 398.682 599.263 402.542C602.559 406.394 604.481 409.052 605.027 410.517C605.38 411.768 604.705 413.179 603.004 414.75C600.452 417.107 594.18 418.269 584.189 418.237C576.64 418.313 572.264 418.119 571.061 417.654C569.867 416.983 569.542 415.116 570.086 412.053C572.481 394.868 573.865 382.065 574.24 373.642C574.623 365.013 574.629 360.279 574.259 359.439C573.694 358.385 572.532 356.995 570.773 355.27Z" fill="white"/>
<path d="M225.755 860.295C222.474 863.845 219.066 865.874 215.532 866.381C211.998 866.888 208.843 865.747 206.066 862.957C203.795 860.929 202.659 857.632 202.659 853.068C202.406 848.503 203.29 845.207 205.309 843.178C207.076 841.149 208.338 837.092 209.095 831.006C209.348 826.949 210.231 824.286 211.746 823.018C213.008 821.75 215.785 820.99 220.076 820.736C226.639 819.975 231.056 821.75 233.328 826.061C234.842 828.597 236.862 830.245 239.386 831.006C241.91 832.02 246.832 832.528 254.152 832.528C261.977 832.528 267.53 831.894 270.812 830.626C273.841 829.611 277.627 826.822 282.171 822.257C286.714 817.947 289.87 815.411 291.636 814.65C293.151 814.143 294.918 814.904 296.937 816.932C299.966 819.975 301.733 827.709 302.238 840.135C302.743 849.518 302.743 854.97 302.238 856.491C301.481 858.013 299.209 858.52 295.423 858.013C274.22 855.984 258.443 854.97 248.094 854.97C237.493 854.97 231.687 855.223 230.677 855.73C229.415 856.491 227.774 858.013 225.755 860.295Z" fill="white"/>
<path d="M651.478 15.7009C654.76 12.1507 658.167 10.1221 661.701 9.6149C665.235 9.10774 668.39 10.2489 671.167 13.0383C673.439 15.0669 674.575 18.3635 674.575 22.928C674.827 27.4925 673.944 30.789 671.924 32.8177C670.157 34.8463 668.895 38.9037 668.138 44.9897C667.886 49.047 667.002 51.7096 665.488 52.9775C664.225 54.2454 661.449 55.0062 657.158 55.2597C650.595 56.0205 646.177 54.2454 643.906 49.9345C642.391 47.3987 640.372 45.7504 637.848 44.9897C635.323 43.9753 630.401 43.4682 623.081 43.4682C615.256 43.4682 609.703 44.1021 606.421 45.37C603.392 46.3844 599.606 49.1738 595.063 53.7382C590.519 58.0491 587.364 60.585 585.597 61.3457C584.082 61.8529 582.315 61.0921 580.296 59.0635C577.267 56.0205 575.5 48.2862 574.995 35.8607C574.49 26.4781 574.49 21.0261 574.995 19.5046C575.753 17.9831 578.024 17.476 581.811 17.9831C603.014 20.0118 618.79 21.0261 629.139 21.0261C639.741 21.0261 645.546 20.7725 646.556 20.2654C647.818 19.5046 649.459 17.9831 651.478 15.7009Z" fill="white"/>
<path d="M324.487 739.397C327.423 736.575 329.101 733.644 329.52 730.605C329.939 727.566 328.996 724.852 326.689 722.465C325.012 720.511 322.286 719.534 318.511 719.534C314.737 719.317 312.011 720.077 310.333 721.813C308.655 723.333 305.3 724.418 300.268 725.07C296.913 725.287 294.711 726.046 293.662 727.349C292.614 728.434 291.985 730.822 291.775 734.513C291.146 740.157 292.614 743.956 296.179 745.909C298.276 747.212 299.639 748.948 300.268 751.119C301.106 753.29 301.526 757.523 301.526 763.818C301.526 770.548 301.002 775.324 299.953 778.146C299.114 780.751 296.808 784.007 293.033 787.914C289.469 791.822 287.372 794.535 286.743 796.055C286.323 797.357 286.952 798.877 288.63 800.613C291.146 803.218 297.542 804.738 307.817 805.172C315.575 805.606 320.084 805.606 321.342 805.172C322.6 804.521 323.019 802.567 322.6 799.311C320.922 781.076 320.084 767.509 320.084 758.608C320.084 749.491 320.293 744.498 320.713 743.63C321.342 742.545 322.6 741.133 324.487 739.397Z" fill="white"/>
<path d="M586.368 87.3969C589.372 84.5749 591.089 81.6443 591.518 78.6051C591.947 75.566 590.981 72.8525 588.621 70.4646C586.904 68.5109 584.115 67.534 580.253 67.534C576.39 67.317 573.601 68.0767 571.885 69.8134C570.168 71.3329 566.735 72.4184 561.585 73.0696C558.152 73.2867 555.899 74.0465 554.826 75.3489C553.753 76.4343 553.11 78.8222 552.895 82.5126C552.251 88.1567 553.753 91.9556 557.401 93.9093C559.547 95.2118 560.941 96.9484 561.585 99.1192C562.443 101.29 562.873 105.523 562.873 111.818C562.873 118.548 562.336 123.324 561.263 126.146C560.405 128.751 558.045 132.007 554.183 135.914C550.535 139.822 548.389 142.535 547.745 144.055C547.316 145.357 547.96 146.877 549.677 148.614C552.251 151.219 558.796 152.738 569.31 153.172C577.249 153.606 581.862 153.606 583.149 153.172C584.437 152.521 584.866 150.567 584.437 147.311C582.72 129.076 581.862 115.509 581.862 106.609C581.862 97.4911 582.077 92.4983 582.506 91.63C583.149 90.5446 584.437 89.1335 586.368 87.3969Z" fill="white"/>
<path d="M651.478 820.701C654.76 817.151 658.167 815.122 661.701 814.615C665.235 814.108 668.39 815.249 671.167 818.038C673.439 820.067 674.575 823.363 674.575 827.928C674.827 832.492 673.944 835.789 671.924 837.818C670.157 839.846 668.895 843.904 668.138 849.99C667.886 854.047 667.002 856.71 665.488 857.977C664.225 859.245 661.449 860.006 657.158 860.26C650.595 861.02 646.177 859.245 643.906 854.934C642.391 852.399 640.372 850.75 637.848 849.99C635.323 848.975 630.401 848.468 623.081 848.468C615.256 848.468 609.703 849.102 606.421 850.37C603.392 851.384 599.606 854.174 595.063 858.738C590.519 863.049 587.364 865.585 585.597 866.346C584.082 866.853 582.315 866.092 580.296 864.063C577.267 861.02 575.5 853.286 574.995 840.861C574.49 831.478 574.49 826.026 574.995 824.505C575.753 822.983 578.024 822.476 581.811 822.983C603.014 825.012 618.79 826.026 629.139 826.026C639.741 826.026 645.546 825.772 646.556 825.265C647.818 824.505 649.459 822.983 651.478 820.701Z" fill="white"/>
<path d="M242.86 299.559C248.582 298.589 253.53 298.325 257.705 298.769C262.021 299.084 264.969 299.655 266.548 300.483C268.128 301.311 269.052 302.313 269.318 303.489C270.102 305.897 268.751 308.552 265.267 311.453C261.782 314.354 258.132 315.702 254.317 315.498C249.501 315.072 246.6 315.309 245.616 316.209C244.772 316.98 233.921 316.817 213.062 315.72C192.453 314.679 169.476 313.672 144.13 312.701C118.893 311.913 101.6 312.243 92.251 313.689C86.4194 314.475 80.9467 314.224 75.8329 312.934C72.7207 312.087 70.6953 311.241 69.7565 310.395C68.9583 309.42 68.5428 307.812 68.5098 305.57C68.4914 301.895 69.0448 299.544 70.1698 298.515C71.8573 296.973 86.648 296.091 114.542 295.869C142.436 295.647 162.521 296.174 174.796 297.45C190.605 299.187 199.072 299.541 200.197 298.513C200.9 297.87 203.464 297.798 207.889 298.297C212.315 298.796 217.881 299.387 224.59 300.072C231.438 300.627 237.528 300.456 242.86 299.559Z" fill="white"/>
<path d="M787.86 299.559C793.582 298.589 798.53 298.325 802.705 298.769C807.021 299.084 809.969 299.655 811.548 300.483C813.128 301.311 814.052 302.313 814.318 303.489C815.102 305.897 813.751 308.552 810.267 311.453C806.782 314.354 803.132 315.702 799.317 315.498C794.501 315.072 791.6 315.309 790.616 316.209C789.772 316.98 778.921 316.817 758.062 315.72C737.453 314.679 714.476 313.672 689.13 312.701C663.893 311.913 646.6 312.243 637.251 313.689C631.419 314.475 625.947 314.224 620.833 312.934C617.721 312.087 615.695 311.241 614.756 310.395C613.958 309.42 613.543 307.812 613.51 305.57C613.491 301.895 614.045 299.544 615.17 298.515C616.857 296.973 631.648 296.091 659.542 295.869C687.436 295.647 707.521 296.174 719.796 297.45C735.605 299.187 744.072 299.541 745.197 298.513C745.9 297.87 748.464 297.798 752.889 298.297C757.315 298.796 762.881 299.387 769.59 300.072C776.438 300.627 782.528 300.456 787.86 299.559Z" fill="white"/>
<path d="M242.86 564.852C248.582 563.882 253.53 563.618 257.705 564.062C262.021 564.377 264.969 564.948 266.548 565.776C268.128 566.604 269.052 567.606 269.318 568.782C270.102 571.19 268.751 573.844 265.267 576.746C261.782 579.647 258.132 580.995 254.317 580.791C249.501 580.365 246.6 580.602 245.616 581.502C244.772 582.273 233.921 582.11 213.062 581.013C192.453 579.971 169.476 578.965 144.13 577.994C118.893 577.206 101.6 577.536 92.251 578.981C86.4194 579.768 80.9467 579.517 75.8329 578.227C72.7207 577.38 70.6953 576.533 69.7565 575.688C68.9583 574.713 68.5428 573.105 68.5098 570.863C68.4914 567.188 69.0448 564.836 70.1698 563.808C71.8573 562.266 86.648 561.383 114.542 561.162C142.436 560.94 162.521 561.467 174.796 562.743C190.605 564.48 199.072 564.834 200.197 563.806C200.9 563.163 203.464 563.091 207.889 563.59C212.315 564.089 217.881 564.68 224.59 565.364C231.438 565.92 237.528 565.749 242.86 564.852Z" fill="white"/>
<path d="M787.86 564.852C793.582 563.882 798.53 563.618 802.705 564.062C807.021 564.377 809.969 564.948 811.548 565.776C813.128 566.604 814.052 567.606 814.318 568.782C815.102 571.19 813.751 573.844 810.267 576.746C806.782 579.647 803.132 580.995 799.317 580.791C794.501 580.365 791.6 580.602 790.616 581.502C789.772 582.273 778.921 582.11 758.062 581.013C737.453 579.971 714.476 578.965 689.13 577.994C663.893 577.206 646.6 577.536 637.251 578.981C631.419 579.768 625.947 579.517 620.833 578.227C617.721 577.38 615.695 576.533 614.756 575.688C613.958 574.713 613.543 573.105 613.51 570.863C613.491 567.188 614.045 564.836 615.17 563.808C616.857 562.266 631.648 561.383 659.542 561.162C687.436 560.94 707.521 561.467 719.796 562.743C735.605 564.48 744.072 564.834 745.197 563.806C745.9 563.163 748.464 563.091 752.889 563.59C757.315 564.089 762.881 564.68 769.59 565.364C776.438 565.92 782.528 565.749 787.86 564.852Z" fill="white"/>
</svg>
